<svg width="512" height="512" viewBox="0 0 512 512" fill="none" xmlns="http://www.w3.org/2000/svg">
<g clip-path="url(#clip0_503_3)">
<rect width="512" height="512" fill="#1A1639"/>
<rect x="71" y="70" width="370" height="370" rx="185" stroke="url(#paint0_linear_503_3)" stroke-width="14"/>
<path fill-rule="evenodd" clip-rule="evenodd" d="M-189.883 -475.622C-105.252 -472.012 -28.6401 -426.531 26.8199 -362.503C78.4158 -302.936 89.2964 -224.336 95.8053 -145.8C103.178 -56.8409 139.043 58.7786 65.9857 110.068C-8.25659 162.19 -99.6945 64.493 -189.883 54.766C-260.897 47.1069 -343.888 109.168 -395.932 60.2493C-447.991 11.3167 -398.43 -74.5179 -403.262 -145.8C-408.818 -227.772 -470.526 -312.833 -425.898 -381.815C-378.093 -455.707 -277.811 -479.373 -189.883 -475.622Z" fill="#705AFF"/>
<path fill-rule="evenodd" clip-rule="evenodd" d="M637.117 348.378C721.748 351.988 798.36 397.469 853.82 461.497C905.416 521.064 916.296 599.664 922.805 678.2C930.178 767.159 966.043 882.779 892.986 934.068C818.743 986.19 727.306 888.493 637.117 878.766C566.103 871.107 483.112 933.168 431.068 884.249C379.009 835.317 428.57 749.482 423.738 678.2C418.182 596.228 356.474 511.167 401.102 442.185C448.907 368.293 549.189 344.627 637.117 348.378Z" fill="#705AFF"/>
</g>
<defs>
<linearGradient id="paint0_linear_503_3" x1="256" y1="63" x2="256" y2="447" gradientUnits="userSpaceOnUse">
<stop stop-color="#32FFAA"/>
<stop offset="1" stop-color="#5AB0FF" stop-opacity="0.44"/>
</linearGradient>
<clipPath id="clip0_503_3">
<rect width="512" height="512" fill="white"/>
</clipPath>
</defs>
</svg>