<svg width="950" height="540" viewBox="0 0 950 540" fill="none" xmlns="http://www.w3.org/2000/svg">
<g clip-path="url(#clip0_507_26)">
<rect width="950" height="540" fill="#1A1639"/>
<path fill-rule="evenodd" clip-rule="evenodd" d="M-98.8828 -415.622C-14.2523 -412.012 62.3599 -366.531 117.82 -302.503C169.416 -242.936 180.296 -164.336 186.805 -85.8001C194.178 3.15909 230.043 118.779 156.986 170.068C82.7434 222.19 -8.69446 124.493 -98.8828 114.766C-169.897 107.107 -252.888 169.168 -304.932 120.249C-356.991 71.3167 -307.43 -14.5178 -312.262 -85.8001C-317.818 -167.772 -379.526 -252.833 -334.898 -321.815C-287.093 -395.707 -186.811 -419.373 -98.8828 -415.622Z" fill="#705AFF"/>
<path fill-rule="evenodd" clip-rule="evenodd" d="M969.117 332.378C1053.75 335.988 1130.36 381.469 1185.82 445.497C1237.42 505.064 1248.3 583.664 1254.81 662.2C1262.18 751.159 1298.04 866.779 1224.99 918.068C1150.74 970.19 1059.31 872.493 969.117 862.766C898.103 855.107 815.112 917.168 763.068 868.249C711.009 819.317 760.57 733.482 755.738 662.2C750.182 580.228 688.474 495.167 733.102 426.185C780.907 352.293 881.189 328.627 969.117 332.378Z" fill="#705AFF"/>
<rect x="318" y="113" width="315" height="315" rx="157.5" stroke="url(#paint0_linear_507_26)" stroke-width="14"/>
<path d="M235.587 245.629C231.5 245.629 227.84 245.873 224.485 246.422C221.191 246.91 218.385 247.581 216.128 248.435C213.932 249.289 211.98 250.326 210.333 251.546C208.625 252.766 207.344 253.986 206.368 255.206C205.453 256.426 204.721 257.768 204.172 259.232C203.562 260.696 203.196 262.038 203.074 263.136C202.891 264.295 202.83 265.454 202.83 266.735V268.443C202.83 269.663 202.891 270.883 203.074 272.042C203.196 273.14 203.562 274.482 204.172 275.946C204.721 277.41 205.453 278.752 206.368 280.033C207.344 281.253 208.625 282.473 210.333 283.754C212.041 284.974 213.993 286.011 216.189 286.926C218.385 287.78 221.191 288.451 224.485 289C227.84 289.549 231.5 289.793 235.587 289.793H237.539C241.626 289.793 245.286 289.549 248.58 289C251.935 288.451 254.68 287.78 256.876 286.926C259.072 286.011 261.024 284.974 262.732 283.754C264.44 282.473 265.721 281.253 266.636 280.033C267.551 278.752 268.283 277.41 268.893 275.946C269.442 274.482 269.869 273.14 269.991 272.042C270.174 270.883 270.235 269.663 270.235 268.443V266.735C270.235 265.454 270.174 264.295 269.991 263.136C269.869 261.977 269.442 260.696 268.893 259.232C268.283 257.768 267.551 256.426 266.575 255.206C265.66 253.986 264.379 252.766 262.671 251.546C261.024 250.326 259.072 249.289 256.876 248.435C254.619 247.581 251.874 246.91 248.58 246.422C245.286 245.873 241.626 245.629 237.539 245.629H235.587ZM254.985 267.955C254.985 269.297 254.741 270.639 254.192 271.859C253.704 273.079 252.789 274.299 251.508 275.458C250.227 276.678 248.275 277.654 245.652 278.325C243.395 278.996 240.65 279.301 237.539 279.423C237.051 279.423 236.319 279.423 236.014 279.423C232.659 279.362 229.731 278.996 227.291 278.325C224.668 277.593 222.777 276.617 221.496 275.397C220.276 274.177 219.361 272.957 218.873 271.737C218.324 270.517 218.08 269.175 218.08 267.833V267.162C218.08 259.903 223.997 256.182 235.77 255.938C236.136 255.938 237.234 255.938 237.783 255.999C240.162 256.06 242.297 256.243 244.188 256.67C246.445 257.158 248.275 257.768 249.617 258.5C250.959 259.171 252.057 260.086 252.85 261.123C253.704 262.16 254.253 263.136 254.558 264.112C254.863 265.027 254.985 266.064 254.985 267.162V267.955ZM275.238 257.463V299.004H289.085V283.937C290.122 284.913 292.074 286.072 295.002 287.231C297.93 288.39 301.529 289 305.799 289H306.836C310.557 289 313.79 288.573 316.535 287.719C319.28 286.865 321.415 285.645 323.001 284.12C324.587 282.595 325.685 280.948 326.417 279.179C327.149 277.349 327.515 275.397 327.515 273.262V272.164C327.515 269.968 327.149 267.955 326.478 266.186C325.746 264.417 324.648 262.77 323.123 261.306C321.598 259.842 319.524 258.744 316.84 257.951C314.156 257.158 310.984 256.731 307.263 256.731H306.165C299.089 256.731 293.416 258.439 289.085 261.916V257.463H275.238ZM289.085 272.652C289.085 270.456 290.183 268.626 292.257 267.04C294.331 265.454 297.442 264.722 301.529 264.722H301.834C305.921 264.722 308.91 265.454 310.679 266.979C312.448 268.443 313.302 270.334 313.302 272.652V272.896C313.302 275.092 312.387 276.983 310.618 278.508C308.849 280.094 305.921 280.887 301.834 280.887H301.529C297.564 280.887 294.514 280.094 292.379 278.508C290.183 276.861 289.085 275.031 289.085 272.896V272.652ZM383.938 277.654V277.593H370.213C370.213 277.837 370.091 278.081 369.908 278.325C369.786 278.569 369.42 278.874 368.993 279.301C368.505 279.667 367.895 280.033 367.102 280.338C366.37 280.704 365.333 280.948 363.991 281.192C362.649 281.436 361.063 281.558 359.355 281.558H359.294C352.279 281.558 348.314 279.545 347.399 275.519H384.121V273.445C384.121 262.343 376.374 256.853 360.819 256.853H357.037C352.645 256.853 348.924 257.28 345.752 258.134C342.641 258.988 340.201 260.147 338.554 261.672C336.846 263.197 335.626 264.783 334.894 266.552C334.162 268.321 333.796 270.212 333.796 272.347V273.567C333.796 275.702 334.162 277.715 334.955 279.484C335.809 281.253 337.09 282.9 338.798 284.425C340.567 285.95 343.007 287.17 346.179 288.024C349.351 288.878 353.072 289.305 357.403 289.305H360.941C364.784 289.305 368.139 289.061 371.006 288.512C373.934 287.963 376.13 287.231 377.716 286.438C379.302 285.584 380.583 284.669 381.62 283.51C382.596 282.412 383.206 281.436 383.511 280.46C383.816 279.545 383.938 278.63 383.938 277.654ZM358.867 263.99C365.394 263.99 369.115 265.698 370.091 269.175H347.643C348.802 265.698 352.523 263.99 358.806 263.99H358.867ZM390.387 257.951V288.695H404.234V274.177C404.234 271.676 405.21 269.663 407.04 268.138C408.931 266.613 411.432 265.82 414.543 265.82C417.532 265.82 419.789 266.491 421.314 267.833C422.778 269.175 423.51 271.066 423.51 273.506V288.695H437.54V269.297C437.54 265.942 436.198 263.136 433.453 260.757C430.769 258.439 426.682 257.28 421.253 257.28H420.765C413.994 257.28 408.443 259.232 404.112 263.197V257.951H390.387ZM443.456 289H483.716C496.587 289 503.053 284.913 503.053 276.678V275.885C503.053 274.116 502.687 272.53 501.955 271.188C501.284 269.785 500.308 268.687 499.149 267.894C497.99 267.162 496.953 266.552 495.977 266.125C495.001 265.698 494.025 265.332 492.988 265.149C493.72 264.966 494.452 264.661 495.123 264.295C495.855 263.99 496.648 263.502 497.502 262.831C498.417 262.221 499.088 261.367 499.637 260.33C500.125 259.293 500.43 258.073 500.43 256.792V255.999C500.43 253.132 499.149 250.753 496.526 248.923C493.964 247.093 489.572 246.239 483.35 246.239H443.456V289ZM458.035 255.267H480.849C484.265 255.267 485.912 256.365 485.912 258.622V258.744C485.912 261.062 484.265 262.221 480.849 262.221H458.035V255.267ZM482.13 271.31C485.973 271.31 487.864 272.591 487.864 275.275V275.458C487.864 276.617 487.437 277.593 486.644 278.386C485.79 279.24 484.265 279.667 482.13 279.667H458.035V271.31H482.13ZM535.304 289.183C551.286 289.183 559.277 283.876 559.277 273.262V272.225C559.277 261.855 551.286 256.67 535.304 256.67H530.851C527.13 256.67 523.775 256.975 520.908 257.646C518.041 258.256 515.723 259.049 513.954 260.086C512.185 261.123 510.782 262.282 509.684 263.746C508.586 265.149 507.854 266.491 507.427 267.894C507 269.297 506.817 270.7 506.817 272.225V273.262C506.817 274.787 507 276.251 507.427 277.654C507.854 279.057 508.586 280.46 509.745 281.924C510.843 283.327 512.246 284.608 514.015 285.645C515.784 286.682 518.102 287.475 520.969 288.146C523.836 288.817 527.191 289.183 530.912 289.183H535.304ZM533.108 280.887C528.777 280.887 525.666 280.094 523.836 278.508C521.945 276.983 521.03 275.092 521.03 272.957V272.652C521.03 270.395 521.945 268.504 523.775 267.04C525.605 265.576 528.716 264.844 533.108 264.844H533.169C537.439 264.844 540.55 265.576 542.38 267.101C544.271 268.565 545.186 270.456 545.186 272.652V272.957C545.186 275.092 544.271 276.983 542.38 278.508C540.55 280.094 537.439 280.887 533.108 280.887ZM579.215 288.695H591.232V280.277H587.45C586.291 280.277 585.559 280.033 585.193 279.606C584.827 279.179 584.644 278.508 584.644 277.593V266.43H591.232V257.951H584.644V248.984H570.919V257.951H564.392V266.43H570.919V279.972C570.919 285.828 573.664 288.695 579.215 288.695ZM598.062 246.361V289.061H644.971V278.447H612.58V246.361H598.062ZM662.71 246.3H648.863V255.084H662.71V246.3ZM662.71 258.073H648.863V288.878H662.71V258.073ZM689.128 289.732H691.69C696.143 289.732 699.864 289.488 702.914 288.939C705.964 288.39 708.221 287.597 709.746 286.56C711.271 285.523 712.308 284.425 712.918 283.266C713.528 282.107 713.833 280.704 713.833 279.179V278.813C713.833 276.617 713.345 274.848 712.43 273.567C711.515 272.286 709.624 271.249 706.818 270.456C704.073 269.663 700.169 269.236 695.106 269.175L689.128 269.053C686.444 268.992 684.614 268.748 683.577 268.321C682.601 267.955 682.113 267.345 682.113 266.552V266.491C682.113 265.637 682.662 265.027 683.699 264.722C684.797 264.356 686.932 264.173 690.104 264.173H690.165C691.873 264.173 693.337 264.295 694.557 264.478C695.716 264.722 696.57 264.966 697.058 265.332C697.546 265.698 697.912 266.064 698.034 266.308C698.217 266.613 698.339 266.918 698.4 267.345H712.613V266.918C712.613 260.452 705.598 257.28 691.568 257.28H689.067C685.529 257.28 682.418 257.463 679.795 257.829C677.172 258.195 675.098 258.683 673.634 259.232C672.109 259.842 670.95 260.574 670.035 261.428C669.12 262.282 668.571 263.197 668.266 263.99C668.022 264.844 667.9 265.82 667.9 266.857V267.223C667.9 268.443 668.144 269.541 668.693 270.578C669.242 271.615 670.157 272.591 671.377 273.567C672.658 274.482 674.549 275.275 676.989 275.824C679.49 276.434 682.479 276.739 685.956 276.8L691.934 276.922C694.984 276.983 696.936 277.227 697.912 277.654C698.827 278.081 699.315 278.752 699.315 279.606V279.728C699.315 280.338 699.132 280.765 698.827 281.192C698.461 281.558 697.607 281.863 696.265 282.168C694.923 282.473 693.032 282.656 690.653 282.656H690.531C684.797 282.656 681.93 281.253 681.93 278.447H667.595V278.813C667.595 286.133 674.732 289.732 689.128 289.732ZM733.502 288.695H745.519V280.277H741.737C740.578 280.277 739.846 280.033 739.48 279.606C739.114 279.179 738.931 278.508 738.931 277.593V266.43H745.519V257.951H738.931V248.984H725.206V257.951H718.679V266.43H725.206V279.972C725.206 285.828 727.951 288.695 733.502 288.695Z" fill="white"/>
</g>
<defs>
<linearGradient id="paint0_linear_507_26" x1="475.5" y1="106" x2="475.5" y2="435" gradientUnits="userSpaceOnUse">
<stop stop-color="#32FFAA"/>
<stop offset="1" stop-color="#5AB0FF" stop-opacity="0.44"/>
</linearGradient>
<clipPath id="clip0_507_26">
<rect width="950" height="540" fill="white"/>
</clipPath>
</defs>
</svg>