<svg width="748" height="74" viewBox="0 0 748 74" fill="none" xmlns="http://www.w3.org/2000/svg">
<path d="M45.628 0.275998C40 0.275998 34.96 0.611999 30.34 1.368C25.804 2.04 21.94 2.964 18.832 4.14C15.808 5.316 13.12 6.744 10.852 8.424C8.5 10.104 6.736 11.784 5.392 13.464C4.132 15.144 3.124 16.992 2.368 19.008C1.528 21.024 1.024 22.872 0.856 24.384C0.604 25.98 0.52 27.576 0.52 29.34V31.692C0.52 33.372 0.604 35.052 0.856 36.648C1.024 38.16 1.528 40.008 2.368 42.024C3.124 44.04 4.132 45.888 5.392 47.652C6.736 49.332 8.5 51.012 10.852 52.776C13.204 54.456 15.892 55.884 18.916 57.144C21.94 58.32 25.804 59.244 30.34 60C34.96 60.756 40 61.092 45.628 61.092H48.316C53.944 61.092 58.984 60.756 63.52 60C68.14 59.244 71.92 58.32 74.944 57.144C77.968 55.884 80.656 54.456 83.008 52.776C85.36 51.012 87.124 49.332 88.384 47.652C89.644 45.888 90.652 44.04 91.492 42.024C92.248 40.008 92.836 38.16 93.004 36.648C93.256 35.052 93.34 33.372 93.34 31.692V29.34C93.34 27.576 93.256 25.98 93.004 24.384C92.836 22.788 92.248 21.024 91.492 19.008C90.652 16.992 89.644 15.144 88.3 13.464C87.04 11.784 85.276 10.104 82.924 8.424C80.656 6.744 77.968 5.316 74.944 4.14C71.836 2.964 68.056 2.04 63.52 1.368C58.984 0.611999 53.944 0.275998 48.316 0.275998H45.628ZM72.34 31.02C72.34 32.868 72.004 34.716 71.248 36.396C70.576 38.076 69.316 39.756 67.552 41.352C65.788 43.032 63.1 44.376 59.488 45.3C56.38 46.224 52.6 46.644 48.316 46.812C47.644 46.812 46.636 46.812 46.216 46.812C41.596 46.728 37.564 46.224 34.204 45.3C30.592 44.292 27.988 42.948 26.224 41.268C24.544 39.588 23.284 37.908 22.612 36.228C21.856 34.548 21.52 32.7 21.52 30.852V29.928C21.52 19.932 29.668 14.808 45.88 14.472C46.384 14.472 47.896 14.472 48.652 14.556C51.928 14.64 54.868 14.892 57.472 15.48C60.58 16.152 63.1 16.992 64.948 18C66.796 18.924 68.308 20.184 69.4 21.612C70.576 23.04 71.332 24.384 71.752 25.728C72.172 26.988 72.34 28.416 72.34 29.928V31.02ZM100.229 16.572V73.776H119.297V53.028C120.725 54.372 123.413 55.968 127.445 57.564C131.477 59.16 136.433 60 142.313 60H143.741C148.865 60 153.317 59.412 157.097 58.236C160.877 57.06 163.817 55.38 166.001 53.28C168.185 51.18 169.697 48.912 170.705 46.476C171.713 43.956 172.217 41.268 172.217 38.328V36.816C172.217 33.792 171.713 31.02 170.789 28.584C169.781 26.148 168.269 23.88 166.169 21.864C164.069 19.848 161.213 18.336 157.517 17.244C153.821 16.152 149.453 15.564 144.329 15.564H142.817C133.073 15.564 125.261 17.916 119.297 22.704V16.572H100.229ZM119.297 37.488C119.297 34.464 120.809 31.944 123.665 29.76C126.521 27.576 130.805 26.568 136.433 26.568H136.853C142.481 26.568 146.597 27.576 149.033 29.676C151.469 31.692 152.645 34.296 152.645 37.488V37.824C152.645 40.848 151.385 43.452 148.949 45.552C146.513 47.736 142.481 48.828 136.853 48.828H136.433C130.973 48.828 126.773 47.736 123.833 45.552C120.809 43.284 119.297 40.764 119.297 37.824V37.488ZM249.914 44.376V44.292H231.014C231.014 44.628 230.846 44.964 230.594 45.3C230.426 45.636 229.922 46.056 229.334 46.644C228.662 47.148 227.822 47.652 226.73 48.072C225.722 48.576 224.294 48.912 222.446 49.248C220.598 49.584 218.414 49.752 216.062 49.752H215.978C206.318 49.752 200.858 46.98 199.598 41.436H250.166V38.58C250.166 23.292 239.498 15.732 218.078 15.732H212.87C206.822 15.732 201.698 16.32 197.33 17.496C193.046 18.672 189.686 20.268 187.418 22.368C185.066 24.468 183.386 26.652 182.378 29.088C181.37 31.524 180.866 34.128 180.866 37.068V38.748C180.866 41.688 181.37 44.46 182.462 46.896C183.638 49.332 185.402 51.6 187.754 53.7C190.19 55.8 193.55 57.48 197.918 58.656C202.286 59.832 207.41 60.42 213.374 60.42H218.246C223.538 60.42 228.158 60.084 232.106 59.328C236.138 58.572 239.162 57.564 241.346 56.472C243.53 55.296 245.294 54.036 246.722 52.44C248.066 50.928 248.906 49.584 249.326 48.24C249.746 46.98 249.914 45.72 249.914 44.376ZM215.39 25.56C224.378 25.56 229.502 27.912 230.846 32.7H199.934C201.53 27.912 206.654 25.56 215.306 25.56H215.39ZM258.796 17.244V59.58H277.864V39.588C277.864 36.144 279.208 33.372 281.728 31.272C284.332 29.172 287.776 28.08 292.06 28.08C296.176 28.08 299.284 29.004 301.384 30.852C303.4 32.7 304.408 35.304 304.408 38.664V59.58H323.728V32.868C323.728 28.248 321.88 24.384 318.1 21.108C314.404 17.916 308.776 16.32 301.3 16.32H300.628C291.304 16.32 283.66 19.008 277.696 24.468V17.244H258.796ZM331.874 60H387.314C405.038 60 413.942 54.372 413.942 43.032V41.94C413.942 39.504 413.438 37.32 412.43 35.472C411.506 33.54 410.162 32.028 408.566 30.936C406.97 29.928 405.542 29.088 404.198 28.5C402.854 27.912 401.51 27.408 400.082 27.156C401.09 26.904 402.098 26.484 403.022 25.98C404.03 25.56 405.122 24.888 406.298 23.964C407.558 23.124 408.482 21.948 409.238 20.52C409.91 19.092 410.33 17.412 410.33 15.648V14.556C410.33 10.608 408.566 7.332 404.954 4.812C401.426 2.292 395.378 1.116 386.81 1.116H331.874V60ZM351.95 13.548H383.366C388.07 13.548 390.338 15.06 390.338 18.168V18.336C390.338 21.528 388.07 23.124 383.366 23.124H351.95V13.548ZM385.13 35.64C390.422 35.64 393.026 37.404 393.026 41.1V41.352C393.026 42.948 392.438 44.292 391.346 45.384C390.17 46.56 388.07 47.148 385.13 47.148H351.95V35.64H385.13ZM458.353 60.252C480.361 60.252 491.365 52.944 491.365 38.328V36.9C491.365 22.62 480.361 15.48 458.353 15.48H452.221C447.097 15.48 442.477 15.9 438.529 16.824C434.581 17.664 431.389 18.756 428.953 20.184C426.517 21.612 424.585 23.208 423.073 25.224C421.561 27.156 420.553 29.004 419.965 30.936C419.377 32.868 419.125 34.8 419.125 36.9V38.328C419.125 40.428 419.377 42.444 419.965 44.376C420.553 46.308 421.561 48.24 423.157 50.256C424.669 52.188 426.601 53.952 429.037 55.38C431.473 56.808 434.665 57.9 438.613 58.824C442.561 59.748 447.181 60.252 452.305 60.252H458.353ZM455.329 48.828C449.365 48.828 445.081 47.736 442.561 45.552C439.957 43.452 438.697 40.848 438.697 37.908V37.488C438.697 34.38 439.957 31.776 442.477 29.76C444.997 27.744 449.281 26.736 455.329 26.736H455.413C461.293 26.736 465.577 27.744 468.097 29.844C470.701 31.86 471.961 34.464 471.961 37.488V37.908C471.961 40.848 470.701 43.452 468.097 45.552C465.577 47.736 461.293 48.828 455.329 48.828ZM518.821 59.58H535.369V47.988H530.161C528.565 47.988 527.557 47.652 527.053 47.064C526.549 46.476 526.297 45.552 526.297 44.292V28.92H535.369V17.244H526.297V4.896H507.397V17.244H498.409V28.92H507.397V47.568C507.397 55.632 511.177 59.58 518.821 59.58ZM544.774 1.28399V60.084H609.37V45.468H564.766V1.28399H544.774ZM633.797 1.2H614.729V13.296H633.797V1.2ZM633.797 17.412H614.729V59.832H633.797V17.412ZM670.176 61.008H673.704C679.836 61.008 684.96 60.672 689.16 59.916C693.36 59.16 696.468 58.068 698.568 56.64C700.668 55.212 702.096 53.7 702.936 52.104C703.776 50.508 704.196 48.576 704.196 46.476V45.972C704.196 42.948 703.524 40.512 702.264 38.748C701.004 36.984 698.4 35.556 694.536 34.464C690.756 33.372 685.38 32.784 678.408 32.7L670.176 32.532C666.48 32.448 663.96 32.112 662.532 31.524C661.188 31.02 660.516 30.18 660.516 29.088V29.004C660.516 27.828 661.272 26.988 662.7 26.568C664.212 26.064 667.152 25.812 671.52 25.812H671.604C673.956 25.812 675.972 25.98 677.652 26.232C679.248 26.568 680.424 26.904 681.096 27.408C681.768 27.912 682.272 28.416 682.44 28.752C682.692 29.172 682.86 29.592 682.944 30.18H702.516V29.592C702.516 20.688 692.856 16.32 673.536 16.32H670.092C665.22 16.32 660.936 16.572 657.324 17.076C653.712 17.58 650.856 18.252 648.84 19.008C646.74 19.848 645.144 20.856 643.884 22.032C642.624 23.208 641.868 24.468 641.448 25.56C641.112 26.736 640.944 28.08 640.944 29.508V30.012C640.944 31.692 641.28 33.204 642.036 34.632C642.792 36.06 644.052 37.404 645.732 38.748C647.496 40.008 650.1 41.1 653.46 41.856C656.904 42.696 661.02 43.116 665.808 43.2L674.04 43.368C678.24 43.452 680.928 43.788 682.272 44.376C683.532 44.964 684.204 45.888 684.204 47.064V47.232C684.204 48.072 683.952 48.66 683.532 49.248C683.028 49.752 681.852 50.172 680.004 50.592C678.156 51.012 675.552 51.264 672.276 51.264H672.108C664.212 51.264 660.264 49.332 660.264 45.468H640.524V45.972C640.524 56.052 650.352 61.008 670.176 61.008ZM731.282 59.58H747.83V47.988H742.622C741.026 47.988 740.018 47.652 739.514 47.064C739.01 46.476 738.758 45.552 738.758 44.292V28.92H747.83V17.244H738.758V4.896H719.858V17.244H710.87V28.92H719.858V47.568C719.858 55.632 723.638 59.58 731.282 59.58Z" fill="white"/>
</svg>
